<svg xmlns="http://www.w3.org/2000/svg" xmlns:xlink="http://www.w3.org/1999/xlink" version="1.1" x="0px" y="0px" viewBox="0 0 100 125" enable-background="new 0 0 100 100" xml:space="preserve"><path fill="#000000" d="M85.092,28.652H14.909C9.445,28.652,5,24.687,5,19.813s4.444-8.839,9.908-8.839h70.184  c5.463,0,9.908,3.965,9.908,8.839S90.555,28.652,85.092,28.652z M14.909,13.559c-4.039,0-7.323,2.806-7.323,6.254  s3.285,6.254,7.323,6.254h70.184c4.038,0,7.323-2.806,7.323-6.254s-3.286-6.254-7.323-6.254H14.909z"/><path fill="#000000" d="M85.092,89.026H14.909C9.445,89.026,5,85.061,5,80.187s4.444-8.839,9.908-8.839h70.184  c5.463,0,9.908,3.965,9.908,8.839S90.555,89.026,85.092,89.026z M14.909,73.933c-4.039,0-7.323,2.806-7.323,6.254  s3.285,6.254,7.323,6.254h70.184c4.038,0,7.323-2.806,7.323-6.254s-3.286-6.254-7.323-6.254H14.909z"/><path fill="#000000" d="M85.092,58.839H14.909C9.445,58.839,5,54.874,5,50s4.444-8.839,9.908-8.839h70.184  C90.555,41.161,95,45.126,95,50S90.555,58.839,85.092,58.839z M14.909,43.746c-4.039,0-7.323,2.806-7.323,6.254  s3.285,6.254,7.323,6.254h70.184c4.038,0,7.323-2.806,7.323-6.254s-3.286-6.254-7.323-6.254H14.909z"/><text x="0" y="115" fill="#000000" font-size="5px" font-weight="bold" font-family="'Helvetica Neue', Helvetica, Arial-Unicode, Arial, Sans-serif">Created by Mert Güler</text><text x="0" y="120" fill="#000000" font-size="5px" font-weight="bold" font-family="'Helvetica Neue', Helvetica, Arial-Unicode, Arial, Sans-serif">from the Noun Project</text></svg>